<?xml version="1.0" encoding="utf-8"?>
<!-- Generator: Adobe Illustrator 16.0.0, SVG Export Plug-In . SVG Version: 6.00 Build 0)  -->
<!DOCTYPE svg PUBLIC "-//W3C//DTD SVG 1.1//EN" "http://www.w3.org/Graphics/SVG/1.1/DTD/svg11.dtd">
<svg version="1.1" id="Livello_1" xmlns="http://www.w3.org/2000/svg" xmlns:xlink="http://www.w3.org/1999/xlink" x="0px" y="0px"
	 width="120.002px" height="40.113px" viewBox="439.998 316.443 120.002 40.113"
	 enable-background="new 439.998 316.443 120.002 40.113" xml:space="preserve">
<g>
	<path fill="#A6A6A6" d="M550.443,316.443H449.561c-0.367,0-0.73,0-1.098,0.002c-0.307,0.002-0.613,0.008-0.922,0.014
		c-0.674,0.008-1.346,0.066-2.01,0.176c-0.664,0.113-1.307,0.324-1.906,0.629c-0.598,0.309-1.146,0.707-1.623,1.184
		c-0.479,0.475-0.877,1.021-1.182,1.625c-0.305,0.6-0.516,1.244-0.627,1.908c-0.111,0.662-0.172,1.334-0.18,2.008
		c-0.01,0.307-0.01,0.615-0.016,0.924v23.178c0.006,0.313,0.006,0.613,0.016,0.924c0.008,0.674,0.068,1.346,0.18,2.01
		c0.109,0.664,0.322,1.309,0.627,1.908c0.305,0.602,0.703,1.146,1.182,1.619c0.475,0.479,1.023,0.877,1.623,1.182
		c0.6,0.307,1.244,0.52,1.906,0.633c0.664,0.109,1.336,0.17,2.01,0.178c0.309,0.008,0.615,0.012,0.922,0.012
		c0.365,0.002,0.729,0.002,1.098,0.002h100.883c0.359,0,0.727,0,1.086-0.002c0.307,0,0.621-0.004,0.926-0.012
		c0.672-0.008,1.342-0.066,2.006-0.178c0.666-0.115,1.311-0.328,1.914-0.633c0.6-0.305,1.146-0.703,1.621-1.182
		c0.477-0.475,0.877-1.02,1.186-1.619c0.303-0.602,0.512-1.244,0.619-1.908c0.113-0.664,0.176-1.336,0.188-2.01
		c0.004-0.311,0.004-0.611,0.004-0.924c0.008-0.363,0.008-0.727,0.008-1.098v-20.986c0-0.367,0-0.73-0.008-1.096
		c0-0.309,0-0.615-0.004-0.922c-0.012-0.674-0.074-1.346-0.188-2.008c-0.107-0.664-0.316-1.309-0.619-1.91
		c-0.621-1.205-1.602-2.188-2.807-2.809c-0.605-0.303-1.248-0.514-1.914-0.627c-0.662-0.109-1.334-0.17-2.006-0.178
		c-0.305-0.004-0.619-0.01-0.926-0.012C551.17,316.443,550.803,316.443,550.443,316.443L550.443,316.443z"/>
	<path d="M448.467,355.68c-0.307,0-0.604-0.004-0.906-0.012c-0.629-0.008-1.256-0.064-1.875-0.164
		c-0.578-0.1-1.139-0.285-1.662-0.549c-0.52-0.262-0.992-0.607-1.4-1.021c-0.416-0.406-0.762-0.879-1.023-1.398
		c-0.266-0.523-0.449-1.084-0.545-1.662c-0.102-0.621-0.158-1.25-0.166-1.881c-0.006-0.211-0.016-0.914-0.016-0.914v-23.166
		c0,0,0.01-0.693,0.016-0.898c0.006-0.629,0.063-1.256,0.166-1.877c0.096-0.58,0.279-1.143,0.545-1.666
		c0.262-0.52,0.605-0.992,1.018-1.402c0.412-0.412,0.887-0.76,1.406-1.025c0.521-0.264,1.08-0.447,1.658-0.545
		c0.621-0.102,1.25-0.156,1.881-0.164l0.904-0.012h103.059l0.914,0.012c0.625,0.008,1.246,0.063,1.863,0.164
		c0.582,0.1,1.148,0.285,1.676,0.549c1.041,0.537,1.889,1.385,2.422,2.428c0.262,0.521,0.441,1.078,0.537,1.652
		c0.104,0.625,0.162,1.258,0.176,1.893c0.002,0.285,0.002,0.59,0.002,0.895c0.008,0.375,0.008,0.734,0.008,1.094v20.988
		c0,0.365,0,0.721-0.008,1.078c0,0.326,0,0.625-0.004,0.932c-0.014,0.623-0.068,1.244-0.172,1.859
		c-0.094,0.582-0.275,1.146-0.543,1.676c-0.264,0.514-0.605,0.982-1.018,1.389c-0.41,0.416-0.885,0.762-1.402,1.025
		c-0.527,0.266-1.092,0.453-1.674,0.551c-0.621,0.104-1.246,0.156-1.875,0.164c-0.293,0.008-0.6,0.012-0.898,0.012l-1.086,0.002
		L448.467,355.68z"/>
</g>
<g>
	<path fill="#FFFFFF" d="M503.113,330.14c-0.801,0-1.477-0.281-2.012-0.833c-0.529-0.537-0.824-1.275-0.813-2.031
		c0-0.806,0.273-1.487,0.813-2.028c0.533-0.552,1.207-0.832,2.01-0.832c0.793,0,1.467,0.28,2.01,0.832
		c0.539,0.559,0.814,1.241,0.814,2.028c-0.008,0.809-0.281,1.49-0.814,2.029C504.59,329.861,503.914,330.14,503.113,330.14z
		 M479.27,330.14c-0.783,0-1.463-0.275-2.021-0.821c-0.551-0.544-0.832-1.229-0.832-2.04s0.279-1.496,0.832-2.04
		c0.547-0.546,1.227-0.821,2.021-0.821c0.389,0,0.766,0.078,1.127,0.233c0.355,0.152,0.645,0.36,0.859,0.614l0.053,0.064l-0.6,0.587
		l-0.061-0.073c-0.338-0.402-0.791-0.599-1.389-0.599c-0.535,0-1,0.189-1.385,0.564c-0.387,0.378-0.584,0.872-0.584,1.471
		s0.197,1.093,0.584,1.47c0.385,0.375,0.85,0.564,1.385,0.564c0.568,0,1.049-0.189,1.422-0.564c0.221-0.221,0.357-0.53,0.406-0.92
		h-1.92v-0.826h2.742l0.012,0.075c0.02,0.139,0.041,0.282,0.041,0.415c0,0.762-0.23,1.377-0.686,1.832
		C480.762,329.866,480.086,330.14,479.27,330.14z M510.973,330.022h-0.848l-2.588-4.144l0.021,0.746v3.396h-0.846v-5.485h0.965
		l0.025,0.042l2.436,3.902l-0.021-0.743v-3.201h0.855V330.022L510.973,330.022z M496.76,330.022h-0.855v-4.663h-1.486v-0.825h3.826
		v0.825h-1.486v4.663H496.76z M493.721,330.022h-0.855v-5.487h0.855V330.022z M488.918,330.022h-0.854v-4.663h-1.486v-0.825h3.826
		v0.825h-1.486V330.022L488.918,330.022z M486.037,330.013h-3.275v-5.479h3.275v0.825h-2.418v1.507h2.184v0.815h-2.184v1.506h2.418
		V330.013z M501.729,328.74c0.383,0.382,0.846,0.573,1.385,0.573c0.555,0,1.008-0.188,1.385-0.573
		c0.375-0.375,0.564-0.868,0.564-1.462c0-0.595-0.189-1.089-0.563-1.462c-0.383-0.382-0.848-0.573-1.385-0.573
		c-0.555,0-1.008,0.188-1.383,0.573c-0.375,0.375-0.564,0.867-0.564,1.462C501.168,327.872,501.355,328.367,501.729,328.74
		L501.729,328.74z"/>
	<path fill="#FFFFFF" d="M500.209,337.685c-2.086,0-3.775,1.583-3.775,3.768c0,2.163,1.701,3.766,3.775,3.766
		c2.088,0,3.777-1.594,3.777-3.766C503.988,339.268,502.297,337.685,500.209,337.685z M500.209,343.725
		c-1.141,0-2.123-0.943-2.123-2.283c0-1.355,0.984-2.28,2.123-2.28c1.143,0,2.125,0.925,2.125,2.28
		C502.336,342.789,501.352,343.725,500.209,343.725z M491.971,337.685c-2.086,0-3.777,1.583-3.777,3.768
		c0,2.163,1.701,3.766,3.777,3.766c2.086,0,3.775-1.594,3.775-3.766C495.746,339.268,494.055,337.685,491.971,337.685z
		 M491.971,343.725c-1.143,0-2.125-0.943-2.125-2.283c0-1.355,0.984-2.28,2.125-2.28s2.123,0.925,2.123,2.28
		C494.094,342.789,493.111,343.725,491.971,343.725z M482.164,338.835v1.594h3.826c-0.117,0.896-0.414,1.555-0.865,2.007
		c-0.561,0.562-1.426,1.17-2.951,1.17c-2.352,0-4.191-1.897-4.191-4.25c0-2.351,1.84-4.249,4.191-4.249
		c1.268,0,2.193,0.501,2.881,1.142l1.129-1.13c-0.953-0.914-2.223-1.614-4.002-1.614c-3.225,0-5.932,2.627-5.932,5.844
		c0,3.226,2.703,5.843,5.932,5.843c1.742,0,3.049-0.568,4.082-1.643c1.053-1.053,1.387-2.538,1.387-3.737
		c0-0.373-0.029-0.709-0.088-0.993h-5.4C482.164,338.815,482.164,338.835,482.164,338.835z M522.273,340.075
		c-0.316-0.846-1.27-2.399-3.227-2.399c-1.938,0-3.551,1.525-3.551,3.766c0,2.115,1.596,3.768,3.738,3.768
		c1.723,0,2.725-1.053,3.137-1.671l-1.277-0.856c-0.424,0.629-1.014,1.042-1.85,1.042c-0.846,0-1.438-0.384-1.83-1.141l5.035-2.087
		C522.449,340.497,522.273,340.075,522.273,340.075z M517.139,341.334c-0.041-1.455,1.131-2.194,1.967-2.194
		c0.66,0,1.209,0.325,1.396,0.797L517.139,341.334z M513.047,344.983h1.652V333.92h-1.652V344.983z M510.332,338.521h-0.059
		c-0.375-0.442-1.082-0.846-1.988-0.846c-1.879,0-3.607,1.653-3.607,3.777c0,2.114,1.723,3.749,3.607,3.749
		c0.896,0,1.613-0.405,1.988-0.857h0.059v0.542c0,1.438-0.768,2.211-2.006,2.211c-1.014,0-1.643-0.729-1.898-1.337l-1.438,0.601
		c0.412,0.993,1.516,2.224,3.334,2.224c1.938,0,3.58-1.143,3.58-3.926v-6.757h-1.563v0.619
		C510.344,338.521,510.332,338.521,510.332,338.521z M508.434,343.725c-1.143,0-2.094-0.953-2.094-2.271
		c0-1.329,0.951-2.291,2.094-2.291c1.131,0,2.008,0.974,2.008,2.291C510.451,342.771,509.566,343.725,508.434,343.725z
		 M530.016,333.919h-3.955v11.063h1.654v-4.189h2.303c1.83,0,3.629-1.327,3.629-3.434
		C533.646,335.255,531.854,333.919,530.016,333.919z M530.063,339.248h-2.35v-3.797h2.35c1.238,0,1.938,1.021,1.938,1.898
		C532,338.217,531.293,339.248,530.063,339.248z M540.273,337.665c-1.201,0-2.439,0.532-2.951,1.689l1.465,0.609
		c0.316-0.609,0.896-0.816,1.506-0.816c0.857,0,1.725,0.513,1.742,1.427v0.116c-0.295-0.168-0.943-0.424-1.723-0.424
		c-1.582,0-3.188,0.865-3.188,2.488c0,1.485,1.299,2.438,2.744,2.438c1.109,0,1.723-0.501,2.104-1.081h0.061v0.855h1.594v-4.238
		C543.625,338.758,542.16,337.665,540.273,337.665z M540.066,343.725c-0.541,0-1.299-0.265-1.299-0.943
		c0-0.857,0.945-1.183,1.752-1.183c0.727,0,1.072,0.157,1.504,0.374C541.904,342.965,541.066,343.716,540.066,343.725z
		 M549.441,337.902l-1.898,4.799h-0.059l-1.969-4.799h-1.777l2.951,6.707l-1.682,3.729h1.721l4.541-10.438h-1.828V337.902z
		 M534.559,344.983h1.652V333.92h-1.652V344.983z"/>
	
		<linearGradient id="SVGID_1_" gradientUnits="userSpaceOnUse" x1="1490.3154" y1="940.9736" x2="1483.3781" y2="937.3926" gradientTransform="matrix(2.1414 0 0 -4.1484 -2732.1106 4229.6128)">
		<stop  offset="0" style="stop-color:#00A0FF"/>
		<stop  offset="0.0066" style="stop-color:#00A1FF"/>
		<stop  offset="0.2601" style="stop-color:#00BEFF"/>
		<stop  offset="0.5122" style="stop-color:#00D2FF"/>
		<stop  offset="0.7604" style="stop-color:#00DFFF"/>
		<stop  offset="1" style="stop-color:#00E3FF"/>
	</linearGradient>
	<path fill="url(#SVGID_1_)" d="M449.135,325.095c-0.258,0.276-0.404,0.698-0.404,1.25v19.575c0,0.552,0.148,0.974,0.412,1.238
		l0.068,0.061l10.969-10.968v-0.245l-10.977-10.969L449.135,325.095z"/>
	
		<linearGradient id="SVGID_2_" gradientUnits="userSpaceOnUse" x1="1541.8828" y1="774.3262" x2="1529.1505" y2="774.3262" gradientTransform="matrix(1.6824 0 0 -1.4165 -2124.1526 1432.9619)">
		<stop  offset="0" style="stop-color:#FFE000"/>
		<stop  offset="0.4087" style="stop-color:#FFBD00"/>
		<stop  offset="0.7754" style="stop-color:#FFA500"/>
		<stop  offset="1" style="stop-color:#FF9C00"/>
	</linearGradient>
	<path fill="url(#SVGID_2_)" d="M463.826,339.917l-3.658-3.658v-0.256l3.658-3.658l0.08,0.049l4.328,2.459
		c1.238,0.697,1.238,1.852,0,2.558l-4.328,2.459L463.826,339.917z"/>
	
		<linearGradient id="SVGID_3_" gradientUnits="userSpaceOnUse" x1="1452.9033" y1="857.3994" x2="1445.611" y2="847.9388" gradientTransform="matrix(2.7632 0 0 -2.1299 -3552.7476 2164.3003)">
		<stop  offset="0" style="stop-color:#FF3A44"/>
		<stop  offset="1" style="stop-color:#C31162"/>
	</linearGradient>
	<path fill="url(#SVGID_3_)" d="M463.906,339.868l-3.736-3.737l-11.035,11.036c0.402,0.432,1.082,0.479,1.838,0.06L463.906,339.868"
		/>
	
		<linearGradient id="SVGID_4_" gradientUnits="userSpaceOnUse" x1="1447.2744" y1="865.4863" x2="1450.53" y2="861.2604" gradientTransform="matrix(2.7632 0 0 -2.1288 -3552.7476 2161.0376)">
		<stop  offset="0" style="stop-color:#32A071"/>
		<stop  offset="0.0685" style="stop-color:#2DA771"/>
		<stop  offset="0.4762" style="stop-color:#15CF74"/>
		<stop  offset="0.8009" style="stop-color:#06E775"/>
		<stop  offset="1" style="stop-color:#00F076"/>
	</linearGradient>
	<path fill="url(#SVGID_4_)" d="M463.906,332.394l-12.934-7.347c-0.758-0.433-1.438-0.373-1.838,0.06l11.035,11.025L463.906,332.394
		z"/>
	<path opacity="0.2" enable-background="new    " d="M463.826,339.789l-12.846,7.298c-0.717,0.413-1.357,0.384-1.771,0.009
		l-0.066,0.068l0.066,0.06c0.414,0.374,1.055,0.404,1.771-0.009l12.934-7.347L463.826,339.789z"/>
	<path opacity="0.12" enable-background="new    " d="M468.234,337.281l-4.418,2.508l0.08,0.079l4.326-2.459
		c0.621-0.354,0.924-0.817,0.924-1.278C469.109,336.554,468.793,336.957,468.234,337.281z"/>
	<path opacity="0.25" fill="#FFFFFF" enable-background="new    " d="M450.973,325.174l17.262,9.806
		c0.561,0.315,0.875,0.729,0.924,1.15c0-0.462-0.305-0.925-0.924-1.278l-17.262-9.806c-1.238-0.708-2.244-0.117-2.244,1.298v0.128
		C448.73,325.055,449.734,324.475,450.973,325.174z"/>
</g>
</svg>
