<?xml version="1.0" encoding="utf-8"?>
<!-- Generator: Adobe Illustrator 16.0.0, SVG Export Plug-In . SVG Version: 6.00 Build 0)  -->
<!DOCTYPE svg PUBLIC "-//W3C//DTD SVG 1.1//EN" "http://www.w3.org/Graphics/SVG/1.1/DTD/svg11.dtd">
<svg version="1.1" id="livetype" xmlns="http://www.w3.org/2000/svg" xmlns:xlink="http://www.w3.org/1999/xlink" x="0px" y="0px"
	 width="120px" height="40.113px" viewBox="440 316.443 120 40.113" enable-background="new 440 316.443 120 40.113"
	 xml:space="preserve">
<g>
	<g>
		<g>
			<path fill="#A6A6A6" d="M550.444,316.443H449.562c-0.368,0-0.731,0-1.098,0.002c-0.307,0.002-0.612,0.008-0.922,0.013
				c-0.673,0.008-1.345,0.067-2.009,0.177c-0.664,0.112-1.307,0.324-1.906,0.629c-0.599,0.307-1.147,0.706-1.623,1.182
				c-0.479,0.475-0.878,1.023-1.182,1.625c-0.305,0.601-0.516,1.245-0.627,1.909c-0.111,0.663-0.172,1.334-0.18,2.008
				c-0.009,0.307-0.01,0.616-0.015,0.923v23.178c0.005,0.312,0.006,0.613,0.015,0.925c0.008,0.673,0.068,1.345,0.18,2.008
				c0.11,0.665,0.322,1.31,0.627,1.91c0.304,0.6,0.703,1.146,1.182,1.619c0.474,0.478,1.022,0.876,1.623,1.181
				c0.6,0.306,1.243,0.519,1.906,0.633c0.664,0.11,1.336,0.169,2.009,0.178c0.31,0.007,0.615,0.011,0.922,0.011
				c0.366,0.002,0.729,0.002,1.098,0.002h100.883c0.359,0,0.727,0,1.086-0.002c0.306,0,0.62-0.004,0.925-0.011
				c0.672-0.009,1.343-0.067,2.006-0.178c0.666-0.115,1.311-0.328,1.914-0.633c0.6-0.305,1.147-0.703,1.621-1.181
				c0.478-0.475,0.878-1.021,1.186-1.619c0.303-0.602,0.512-1.245,0.62-1.91c0.112-0.663,0.175-1.335,0.187-2.008
				c0.004-0.312,0.004-0.613,0.004-0.925c0.008-0.363,0.008-0.727,0.008-1.097v-20.987c0-0.367,0-0.731-0.008-1.095
				c0-0.308,0-0.616-0.004-0.923c-0.012-0.673-0.074-1.344-0.187-2.008c-0.108-0.664-0.318-1.308-0.62-1.909
				c-0.62-1.206-1.601-2.188-2.807-2.808c-0.604-0.303-1.248-0.515-1.914-0.628c-0.662-0.11-1.334-0.169-2.006-0.177
				c-0.305-0.005-0.619-0.011-0.925-0.013C551.171,316.443,550.804,316.443,550.444,316.443L550.444,316.443z"/>
			<path d="M448.468,355.679c-0.306,0-0.604-0.004-0.906-0.012c-0.628-0.007-1.255-0.063-1.875-0.163
				c-0.578-0.1-1.138-0.285-1.662-0.549c-0.519-0.263-0.992-0.607-1.401-1.021c-0.416-0.407-0.761-0.88-1.023-1.399
				c-0.265-0.523-0.449-1.084-0.544-1.662c-0.103-0.622-0.159-1.251-0.167-1.881c-0.006-0.211-0.015-0.915-0.015-0.915v-23.166
				c0,0,0.009-0.693,0.015-0.897c0.007-0.629,0.063-1.256,0.166-1.877c0.096-0.58,0.279-1.143,0.545-1.667
				c0.262-0.519,0.605-0.992,1.018-1.402c0.412-0.413,0.887-0.759,1.406-1.025c0.522-0.264,1.081-0.448,1.658-0.545
				c0.622-0.102,1.25-0.157,1.881-0.164l0.904-0.012h103.058l0.915,0.012c0.625,0.008,1.247,0.062,1.864,0.164
				c0.582,0.099,1.147,0.284,1.675,0.549c1.041,0.536,1.888,1.385,2.422,2.427c0.262,0.521,0.442,1.078,0.537,1.653
				c0.104,0.625,0.162,1.258,0.175,1.893c0.003,0.284,0.003,0.589,0.003,0.893c0.007,0.376,0.007,0.734,0.007,1.095v20.987
				c0,0.365,0,0.721-0.007,1.078c0,0.326,0,0.626-0.004,0.933c-0.013,0.623-0.069,1.244-0.172,1.859
				c-0.094,0.582-0.276,1.147-0.542,1.675c-0.264,0.514-0.607,0.982-1.018,1.389c-0.41,0.416-0.885,0.762-1.403,1.026
				c-0.527,0.266-1.091,0.452-1.673,0.551c-0.621,0.102-1.247,0.156-1.875,0.163c-0.294,0.008-0.601,0.012-0.9,0.012l-1.086,0.002
				L448.468,355.679z"/>
		</g>
		<g id="_Group_">
			<g id="_Group_2">
				<g id="_Group_3">
					<path id="_Path_" fill="#FFFFFF" d="M464.838,336.801c0.022-1.701,0.914-3.272,2.363-4.163
						c-0.918-1.312-2.402-2.114-4.002-2.164c-1.684-0.177-3.317,1.008-4.174,1.008c-0.875,0-2.196-0.99-3.619-0.961
						c-1.872,0.061-3.575,1.099-4.485,2.735c-1.939,3.358-0.493,8.293,1.365,11.007c0.929,1.329,2.016,2.814,3.437,2.762
						c1.391-0.059,1.911-0.888,3.59-0.888c1.663,0,2.15,0.888,3.601,0.854c1.492-0.024,2.433-1.335,3.33-2.676
						c0.668-0.947,1.182-1.994,1.523-3.102C465.993,340.463,464.84,338.726,464.838,336.801z"/>
					<path id="_Path_2" fill="#FFFFFF" d="M462.099,328.689c0.814-0.977,1.215-2.233,1.118-3.501
						c-1.243,0.131-2.392,0.725-3.217,1.665c-0.814,0.927-1.227,2.14-1.147,3.371C460.113,330.236,461.31,329.671,462.099,328.689z"
						/>
				</g>
			</g>
			<g>
				<path fill="#FFFFFF" d="M482.421,343.66h-4.747l-1.14,3.365h-2.01l4.496-12.453h2.089l4.496,12.453h-2.044L482.421,343.66z
					 M478.166,342.106h3.762l-1.855-5.463h-0.051L478.166,342.106z"/>
				<path fill="#FFFFFF" d="M495.314,342.486c0,2.821-1.51,4.634-3.789,4.634c-1.178,0.062-2.287-0.555-2.856-1.588h-0.043v4.497
					h-1.863v-12.084h1.804v1.511h0.034c0.594-1.026,1.705-1.644,2.891-1.605C493.795,337.851,495.314,339.673,495.314,342.486z
					 M493.399,342.486c0-1.839-0.95-3.047-2.399-3.047c-1.424,0-2.382,1.234-2.382,3.047c0,1.829,0.958,3.054,2.382,3.054
					C492.449,345.54,493.399,344.341,493.399,342.486z"/>
				<path fill="#FFFFFF" d="M505.308,342.486c0,2.821-1.511,4.634-3.789,4.634c-1.178,0.062-2.287-0.555-2.857-1.588h-0.043v4.497
					h-1.863v-12.084h1.804v1.511h0.034c0.594-1.026,1.705-1.644,2.891-1.605C503.788,337.851,505.308,339.673,505.308,342.486z
					 M503.392,342.486c0-1.839-0.949-3.047-2.398-3.047c-1.424,0-2.382,1.234-2.382,3.047c0,1.829,0.958,3.054,2.382,3.054
					C502.442,345.54,503.392,344.341,503.392,342.486z"/>
				<path fill="#FFFFFF" d="M511.912,343.556c0.138,1.234,1.338,2.046,2.978,2.046c1.57,0,2.7-0.812,2.7-1.925
					c0-0.967-0.682-1.545-2.296-1.941l-1.614-0.39c-2.286-0.552-3.348-1.622-3.348-3.357c0-2.148,1.872-3.624,4.531-3.624
					c2.632,0,4.436,1.476,4.496,3.624h-1.882c-0.112-1.242-1.14-1.992-2.641-1.992s-2.528,0.759-2.528,1.863
					c0,0.881,0.656,1.398,2.261,1.795l1.372,0.337c2.556,0.604,3.617,1.631,3.617,3.453c0,2.329-1.856,3.788-4.808,3.788
					c-2.763,0-4.626-1.425-4.747-3.677H511.912z"/>
				<path fill="#FFFFFF" d="M523.58,335.797v2.148h1.727v1.477h-1.727v5.006c0,0.777,0.346,1.139,1.104,1.139
					c0.205-0.003,0.409-0.018,0.613-0.043v1.467c-0.342,0.064-0.688,0.093-1.035,0.087c-1.838,0-2.555-0.69-2.555-2.451v-5.204
					h-1.32v-1.477h1.32v-2.148H523.58z"/>
				<path fill="#FFFFFF" d="M526.307,342.486c0-2.857,1.683-4.652,4.307-4.652c2.632,0,4.307,1.795,4.307,4.652
					c0,2.864-1.666,4.651-4.307,4.651S526.307,345.351,526.307,342.486z M533.021,342.486c0-1.96-0.898-3.116-2.407-3.116
					c-1.511,0-2.407,1.165-2.407,3.116c0,1.968,0.896,3.115,2.407,3.115C532.122,345.602,533.021,344.454,533.021,342.486
					L533.021,342.486z"/>
				<path fill="#FFFFFF" d="M536.456,337.945h1.777v1.546h0.043c0.248-0.994,1.159-1.68,2.185-1.641
					c0.215-0.001,0.428,0.022,0.638,0.069v1.744c-0.271-0.083-0.554-0.121-0.837-0.112c-1.037-0.042-1.91,0.763-1.953,1.8
					c-0.003,0.097,0,0.192,0.011,0.289v5.385h-1.863V337.945z"/>
				<path fill="#FFFFFF" d="M549.691,344.358c-0.25,1.647-1.855,2.779-3.909,2.779c-2.642,0-4.281-1.77-4.281-4.608
					c0-2.849,1.648-4.695,4.202-4.695c2.513,0,4.092,1.726,4.092,4.479v0.639h-6.412v0.112c-0.115,1.301,0.846,2.449,2.146,2.564
					c0.099,0.009,0.197,0.011,0.296,0.008c0.904,0.085,1.757-0.435,2.096-1.277H549.691z M543.392,341.648h4.539
					c0.067-1.203-0.855-2.233-2.059-2.301c-0.057-0.003-0.112-0.004-0.169-0.003c-1.27-0.008-2.305,1.015-2.312,2.284
					C543.392,341.636,543.392,341.643,543.392,341.648L543.392,341.648z"/>
			</g>
		</g>
	</g>
	<g id="_Group_4">
		<g>
			<path fill="#FFFFFF" d="M477.932,325.199c1.458-0.104,2.726,0.993,2.83,2.451c0.013,0.174,0.008,0.349-0.014,0.522
				c0,1.911-1.033,3.01-2.816,3.01h-2.161v-5.984H477.932z M476.7,330.336h1.128c1.037,0.062,1.928-0.729,1.99-1.766
				c0.008-0.129,0.002-0.258-0.016-0.386c0.141-1.032-0.581-1.984-1.613-2.125c-0.12-0.017-0.24-0.021-0.361-0.015H476.7V330.336z"
				/>
			<path fill="#FFFFFF" d="M481.797,328.923c-0.112-1.176,0.75-2.221,1.926-2.333c1.176-0.113,2.22,0.75,2.333,1.925
				c0.013,0.136,0.013,0.272,0,0.408c0.115,1.176-0.746,2.222-1.922,2.336c-1.176,0.115-2.223-0.746-2.337-1.922
				C481.784,329.2,481.784,329.061,481.797,328.923z M485.14,328.923c0-0.979-0.439-1.551-1.212-1.551
				c-0.774,0-1.21,0.572-1.21,1.551c0,0.986,0.436,1.555,1.21,1.555C484.701,330.478,485.14,329.906,485.14,328.923L485.14,328.923z
				"/>
			<path fill="#FFFFFF" d="M491.718,331.183h-0.924l-0.934-3.326h-0.071l-0.929,3.326h-0.916l-1.245-4.516h0.904l0.809,3.445h0.066
				l0.929-3.445h0.854l0.929,3.445h0.07l0.805-3.445h0.891L491.718,331.183z"/>
			<path fill="#FFFFFF" d="M494.005,326.667h0.857v0.717h0.067c0.231-0.528,0.773-0.852,1.348-0.805
				c0.809-0.061,1.514,0.546,1.574,1.354c0.009,0.109,0.004,0.217-0.012,0.325v2.923h-0.891v-2.7c0-0.726-0.315-1.086-0.974-1.086
				c-0.572-0.027-1.057,0.415-1.083,0.987c-0.002,0.052-0.001,0.105,0.005,0.157v2.642h-0.891V326.667z"/>
			<path fill="#FFFFFF" d="M499.259,324.904h0.892v6.279h-0.892V324.904z"/>
			<path fill="#FFFFFF" d="M501.39,328.923c-0.112-1.176,0.75-2.221,1.927-2.333c1.176-0.112,2.221,0.75,2.333,1.926
				c0.013,0.136,0.013,0.272,0,0.408c0.114,1.176-0.746,2.222-1.923,2.336s-2.223-0.746-2.337-1.922
				C501.376,329.199,501.376,329.061,501.39,328.923z M504.732,328.923c0-0.979-0.44-1.551-1.212-1.551
				c-0.774,0-1.211,0.572-1.211,1.551c0,0.986,0.437,1.555,1.211,1.555C504.292,330.478,504.732,329.906,504.732,328.923z"/>
			<path fill="#FFFFFF" d="M506.587,329.906c0-0.813,0.605-1.282,1.68-1.348l1.224-0.07v-0.39c0-0.477-0.315-0.746-0.925-0.746
				c-0.497,0-0.843,0.183-0.94,0.502h-0.863c0.092-0.776,0.82-1.273,1.845-1.273c1.132,0,1.771,0.563,1.771,1.518v3.085h-0.857
				v-0.635h-0.07c-0.292,0.463-0.811,0.734-1.356,0.709c-0.749,0.078-1.421-0.466-1.498-1.216
				C506.59,329.996,506.588,329.951,506.587,329.906z M509.49,329.52v-0.377l-1.104,0.071c-0.621,0.041-0.903,0.253-0.903,0.651
				c0,0.407,0.353,0.643,0.837,0.643c0.585,0.06,1.107-0.366,1.167-0.951C509.488,329.543,509.489,329.532,509.49,329.52z"/>
			<path fill="#FFFFFF" d="M511.548,328.923c0-1.427,0.734-2.331,1.875-2.331c0.576-0.026,1.116,0.282,1.385,0.792h0.066v-2.48
				h0.891v6.279h-0.853v-0.713h-0.071c-0.289,0.505-0.836,0.809-1.418,0.788C512.273,331.257,511.548,330.353,511.548,328.923z
				 M512.469,328.923c0,0.958,0.452,1.534,1.207,1.534c0.75,0,1.216-0.584,1.216-1.53c0-0.941-0.47-1.534-1.216-1.534
				C512.926,327.393,512.469,327.973,512.469,328.923L512.469,328.923z"/>
			<path fill="#FFFFFF" d="M519.452,328.923c-0.112-1.176,0.75-2.221,1.926-2.333c1.177-0.113,2.221,0.75,2.333,1.925
				c0.014,0.136,0.014,0.272,0,0.408c0.114,1.176-0.746,2.222-1.922,2.336c-1.176,0.115-2.223-0.746-2.337-1.922
				C519.439,329.2,519.439,329.061,519.452,328.923z M522.794,328.923c0-0.979-0.439-1.551-1.211-1.551
				c-0.774,0-1.21,0.572-1.21,1.551c0,0.986,0.436,1.555,1.21,1.555C522.354,330.478,522.794,329.906,522.794,328.923z"/>
			<path fill="#FFFFFF" d="M524.907,326.667h0.858v0.717h0.066c0.231-0.528,0.772-0.852,1.347-0.805
				c0.81-0.061,1.515,0.546,1.575,1.354c0.008,0.109,0.004,0.217-0.012,0.325v2.923h-0.891v-2.7c0-0.726-0.316-1.086-0.976-1.086
				c-0.57-0.027-1.056,0.415-1.083,0.987c-0.002,0.052,0,0.105,0.005,0.157v2.642h-0.891V326.667z"/>
			<path fill="#FFFFFF" d="M533.778,325.542v1.145h0.978v0.75h-0.978v2.322c0,0.473,0.194,0.68,0.639,0.68
				c0.113,0,0.227-0.007,0.339-0.021v0.742c-0.16,0.029-0.322,0.044-0.484,0.046c-0.991,0-1.386-0.349-1.386-1.219v-2.55h-0.718
				v-0.751h0.718v-1.145H533.778z"/>
			<path fill="#FFFFFF" d="M535.974,324.904h0.883v2.489h0.07c0.243-0.533,0.794-0.856,1.378-0.809
				c0.82-0.044,1.521,0.584,1.565,1.404c0.006,0.093,0.002,0.187-0.012,0.279v2.916h-0.892v-2.696c0-0.721-0.336-1.086-0.965-1.086
				c-0.581-0.047-1.091,0.385-1.138,0.965c-0.006,0.06-0.006,0.12,0,0.18v2.637h-0.891V324.904z"/>
			<path fill="#FFFFFF" d="M545.056,329.963c-0.251,0.852-1.075,1.402-1.957,1.306c-1.133,0.03-2.074-0.864-2.104-1.996
				c-0.003-0.112,0.004-0.224,0.019-0.334c-0.152-1.14,0.647-2.188,1.788-2.341c0.098-0.013,0.195-0.019,0.294-0.019
				c1.257,0,2.014,0.858,2.014,2.276v0.311h-3.188v0.05c-0.055,0.657,0.433,1.234,1.09,1.29c0.037,0.003,0.076,0.005,0.113,0.004
				c0.436,0.052,0.86-0.164,1.074-0.547H545.056z M541.92,328.508h2.281c0.045-0.6-0.406-1.122-1.006-1.167
				c-0.035-0.003-0.07-0.004-0.105-0.003c-0.638-0.008-1.161,0.502-1.17,1.14C541.92,328.488,541.92,328.498,541.92,328.508
				L541.92,328.508z"/>
		</g>
	</g>
</g>
</svg>
